<?xml version="1.0" encoding="utf-8"?>
<!-- Generator: Adobe Illustrator 17.0.0, SVG Export Plug-In . SVG Version: 6.00 Build 0)  -->
<!DOCTYPE svg PUBLIC "-//W3C//DTD SVG 1.1//EN" "http://www.w3.org/Graphics/SVG/1.1/DTD/svg11.dtd">
<svg version="1.1" id="Layer_1" xmlns="http://www.w3.org/2000/svg" xmlns:xlink="http://www.w3.org/1999/xlink" x="0px" y="0px"
	 width="612px" height="792px" viewBox="0 0 612 792" enable-background="new 0 0 612 792" xml:space="preserve">
<g>
	<path fill="#352767" stroke="#693995" stroke-miterlimit="10" d="M183.015,412.621c-5.506-0.162-10.595-1.157-15.364-3.46
		c-8-3.864-16.018-13.753-17.74-22.404c-2.166-10.884,3.65-20.938,11.587-27.94c5.349-4.719,11.618-8.564,17.844-12.01
		c1.281-0.709,1.641-1.504,1.501-2.84c-1.074-10.193,1.321-30.248,15.043-30.925c10.466-0.516,15.709,10.557,13.47,19.471
		c-1.204,4.793-4.032,8.65-7.733,11.76c-3.565,2.996-7.403,5.67-11.161,8.43c-0.76,0.558-1.026,1.03-0.96,2.047
		c0.172,2.667,0.077,5.351,0.088,8.028c0.002,0.605,0,1.211,0.257,1.484c2.947,1.079,6.051,1.857,8.809,3.297
		c6.272,3.274,10.839,8.133,12.725,15.188c2.495,9.333-2.387,21.743-11.701,26.054c-2.598,1.203-5.391,1.992-8.116,2.905
		c-0.679,0.228-0.784,0.518-0.773,1.2c0.099,6.664,0.237,13.331,0.151,19.994c-0.036,2.811-0.944,5.474-2.603,7.845
		c-2.214,3.165-5.429,4.453-9.05,4.44c-4.565-0.017-8.642-1.546-11.556-5.317c-3.237-4.189-2.744-9.689-0.002-13.71
		c1.14-1.671,3.42-2.014,5.161-0.983c1.812,1.073,2.464,2.997,1.715,4.954c-0.395,1.033-0.909,2.068-1.029,3.14
		c-0.077,0.683,0.285,1.607,0.768,2.127c1.568,1.689,3.632,2.272,5.875,1.911c1.678-0.27,2.843-2.085,2.865-4.634
		c0.048-5.429-0.041-10.859-0.071-16.288C183.009,415.173,183.015,413.959,183.015,412.621z M181.355,358.492
		c-0.32,0.079-0.459,0.083-0.565,0.145c-5.756,3.325-11.35,6.878-15.821,11.9c-3.416,3.837-4.916,8.328-4.023,13.44
		c1.261,7.222,5.224,12.448,11.916,15.523c3.049,1.401,6.228,2.314,9.775,2.395c-0.272-9.283-0.54-18.415-0.816-27.79
		c-1.342,0.714-2.428,1.169-3.37,1.828c-0.944,0.661-1.873,1.424-2.584,2.32c-2.289,2.886-1.393,5.941,2.05,7.242
		c1.52,0.575,2.517,1.577,2.714,3.228c0.2,1.676-0.399,3.072-1.812,3.975c-1.803,1.153-3.488,0.54-5.205-0.44
		c-5.206-2.97-7.723-8.458-6.261-14.104c1.104-4.265,3.866-7.323,7.564-9.509c2.053-1.213,4.292-2.11,6.437-3.144
		C181.355,363.241,181.355,360.95,181.355,358.492z M190.539,401.275c6.678-1.049,11.978-5.872,12.01-14.467
		c0.025-6.66-7.637-12.694-12.681-13.303C190.091,382.744,190.314,391.971,190.539,401.275z M189.272,340.858
		c3.417-2.355,6.421-4.637,8.712-7.701c1.829-2.447,2.836-5.15,1.756-8.202c-0.977-2.758-3.678-3.185-5.55-0.976
		C190.109,328.794,189.438,334.585,189.272,340.858z"/>
</g>
<g>
	<path fill="#352767" d="M246.072,372.851h-12.334v-4.307c0-2.715-0.117-4.414-0.352-5.098s-0.791-1.025-1.67-1.025
		c-0.762,0-1.279,0.293-1.553,0.879c-0.274,0.586-0.41,2.09-0.41,4.512v22.764c0,2.129,0.136,3.53,0.41,4.204
		c0.273,0.674,0.82,1.011,1.641,1.011c0.898,0,1.509-0.381,1.831-1.143s0.483-2.246,0.483-4.453v-5.625h-2.49v-7.207h14.443v25.459
		h-7.751l-1.141-3.398c-0.84,1.465-1.901,2.563-3.181,3.296s-2.79,1.099-4.529,1.099c-2.072,0-4.012-0.503-5.82-1.509
		s-3.181-2.251-4.119-3.735s-1.525-3.042-1.759-4.673s-0.352-4.077-0.352-7.339V372.47c0-4.531,0.244-7.822,0.732-9.873
		c0.488-2.051,1.89-3.931,4.204-5.64s5.307-2.563,8.979-2.563c3.613,0,6.611,0.742,8.994,2.227c2.383,1.484,3.936,3.247,4.658,5.288
		c0.722,2.041,1.084,5.005,1.084,8.892V372.851z"/>
	<path fill="#352767" d="M263.181,355.39v47.432h-12.333V355.39H263.181z"/>
	<path fill="#352767" d="M296.433,372.851h-12.334v-4.307c0-2.715-0.117-4.414-0.352-5.098s-0.791-1.025-1.67-1.025
		c-0.762,0-1.279,0.293-1.553,0.879s-0.41,2.09-0.41,4.512v22.764c0,2.129,0.137,3.53,0.41,4.204s0.82,1.011,1.641,1.011
		c0.898,0,1.509-0.381,1.831-1.143s0.483-2.246,0.483-4.453v-5.625h-2.49v-7.207h14.443v25.459h-7.751l-1.141-3.398
		c-0.84,1.465-1.9,2.563-3.181,3.296s-2.79,1.099-4.529,1.099c-2.072,0-4.013-0.503-5.82-1.509
		c-1.809-1.006-3.181-2.251-4.119-3.735s-1.525-3.042-1.76-4.673s-0.352-4.077-0.352-7.339V372.47c0-4.531,0.244-7.822,0.732-9.873
		s1.89-3.931,4.204-5.64s5.308-2.563,8.979-2.563c3.613,0,6.611,0.742,8.994,2.227s3.936,3.247,4.658,5.288s1.084,5.005,1.084,8.892
		V372.851z"/>
</g>
<g>
	<path fill="#693896" d="M327.253,355.417v47.432h-12.334v-19.922h-3.691v19.922h-12.334v-47.432h12.334v16.963h3.691v-16.963
		H327.253z"/>
	<path fill="#693896" d="M332.204,355.417h20.566v9.492h-8.232v8.994h7.705v9.023h-7.705v10.43h9.053v9.492h-21.387V355.417z"/>
	<path fill="#693896" d="M369.47,355.417v37.939h7.5v9.492h-19.834v-47.432H369.47z"/>
	<path fill="#693896" d="M379.958,355.417h12.422c3.358,0,5.942,0.264,7.749,0.791c1.806,0.527,3.164,1.289,4.072,2.285
		s1.523,2.202,1.846,3.618c0.322,1.417,0.483,3.608,0.483,6.577v4.131c0,3.028-0.313,5.234-0.938,6.621
		c-0.626,1.387-1.772,2.451-3.442,3.193c-1.67,0.743-3.853,1.113-6.548,1.113h-3.311v19.102h-12.334V355.417z M392.292,363.532
		v12.07c0.352,0.02,0.654,0.029,0.908,0.029c1.132,0,1.919-0.278,2.358-0.835s0.659-1.714,0.659-3.472v-3.896
		c0-1.621-0.254-2.676-0.762-3.164C394.947,363.777,393.893,363.532,392.292,363.532z"/>
	<path fill="#693896" d="M410.075,355.417h20.566v9.492h-8.232v8.994h7.705v9.023h-7.705v10.43h9.053v9.492h-21.387V355.417z"/>
	<path fill="#693896" d="M435.007,355.417h8.73c5.819,0,9.76,0.225,11.821,0.674c2.061,0.45,3.739,1.597,5.039,3.442
		c1.299,1.846,1.948,4.79,1.948,8.833c0,3.691-0.459,6.172-1.377,7.441c-0.919,1.27-2.725,2.032-5.42,2.285
		c2.441,0.605,4.082,1.417,4.922,2.432c0.839,1.016,1.362,1.948,1.567,2.798s0.308,3.189,0.308,7.017v12.51h-11.455v-15.762
		c0-2.539-0.201-4.111-0.601-4.717c-0.4-0.605-1.45-0.908-3.149-0.908v21.387h-12.334V355.417z M447.341,363.532v10.547
		c1.387,0,2.358-0.19,2.915-0.571s0.835-1.616,0.835-3.706v-2.607c0-1.504-0.269-2.49-0.806-2.959
		C449.747,363.767,448.766,363.532,447.341,363.532z"/>
</g>
</svg>
