<?xml version="1.0" standalone="no"?>
<!DOCTYPE svg PUBLIC "-//W3C//DTD SVG 20010904//EN"
 "http://www.w3.org/TR/2001/REC-SVG-20010904/DTD/svg10.dtd">
<svg version="1.0" xmlns="http://www.w3.org/2000/svg"
 width="1280.000000pt" height="1258.000000pt" viewBox="0 0 1280.000000 1258.000000"
 preserveAspectRatio="xMidYMid meet">
<metadata>
Created by potrace 1.15, written by Peter Selinger 2001-2017
</metadata>
<g transform="translate(0.000000,1258.000000) scale(0.100000,-0.100000)"
fill="#000000" stroke="none">
<path d="M5510 12570 c-324 -40 -663 -160 -950 -334 -326 -199 -637 -510 -835
-835 -126 -206 -167 -323 -235 -661 -48 -235 -63 -399 -57 -600 7 -202 18
-258 81 -397 92 -205 95 -249 31 -483 -59 -215 -77 -322 -78 -450 -1 -92 3
-112 25 -161 34 -74 73 -102 194 -140 196 -61 221 -75 264 -144 17 -28 23 -59
30 -182 14 -226 31 -296 95 -384 l35 -49 0 -223 c0 -235 11 -320 48 -393 67
-131 206 -156 625 -113 269 27 367 24 470 -19 129 -53 238 -138 279 -217 18
-34 20 -51 15 -118 -9 -111 5 -203 67 -437 83 -311 88 -378 45 -553 -56 -222
-120 -405 -342 -962 -209 -527 -283 -767 -332 -1067 l-6 -38 -106 123 c-237
273 -345 368 -518 452 -132 65 -161 92 -255 245 -63 103 -96 137 -164 172
-141 71 -195 182 -196 400 0 72 -44 206 -160 493 -113 277 -298 649 -386 778
-61 88 -58 142 11 216 53 57 120 92 240 127 117 33 196 78 270 152 102 103
162 223 185 375 33 222 -83 436 -292 535 -98 47 -161 62 -266 62 -101 0 -175
-20 -291 -76 -164 -81 -270 -213 -316 -393 -40 -157 -73 -179 -275 -193 -234
-15 -243 -19 -426 -165 -137 -109 -204 -180 -279 -294 -68 -103 -97 -131 -218
-204 -108 -65 -167 -126 -201 -207 -28 -64 -30 -67 -106 -108 -183 -98 -217
-180 -152 -367 37 -106 39 -130 14 -210 -40 -128 -134 -240 -407 -482 -385
-343 -562 -553 -647 -767 -28 -68 -32 -92 -32 -169 0 -78 3 -97 26 -140 52
-100 118 -137 238 -138 127 0 260 52 432 169 222 151 508 430 802 782 106 126
150 146 205 92 40 -40 78 -122 141 -305 68 -196 115 -306 162 -382 43 -67 76
-96 158 -138 148 -75 250 -171 276 -261 24 -84 10 -134 -78 -267 -32 -49 -65
-112 -73 -140 -47 -158 -18 -346 91 -598 20 -46 47 -109 60 -139 32 -75 31
-150 -6 -315 -35 -155 -37 -223 -11 -281 27 -60 181 -235 380 -434 266 -265
517 -481 1121 -965 370 -297 512 -413 672 -551 l107 -93 4040 2 c2222 1 4042
5 4046 9 9 8 -18 292 -55 595 -83 667 -245 1482 -461 2323 -205 799 -305 1115
-586 1855 -297 782 -376 954 -563 1217 -168 237 -615 706 -890 934 -481 399
-1108 811 -1422 934 -195 76 -257 120 -307 219 -12 22 -26 43 -32 46 -5 4 -42
50 -81 103 -155 211 -214 258 -313 250 -33 -3 -62 -12 -80 -26 -15 -12 -42
-22 -60 -22 -52 0 -84 47 -151 223 -19 50 -49 117 -66 148 -17 32 -28 66 -25
76 115 399 148 542 186 813 44 314 51 623 21 890 -64 560 -290 1038 -651 1374
-304 283 -724 485 -1212 582 -148 29 -400 40 -537 24z"/>
</g>
</svg>
